<?xml version="1.0" standalone="no"?>
<!DOCTYPE svg PUBLIC "-//W3C//DTD SVG 20010904//EN"
 "http://www.w3.org/TR/2001/REC-SVG-20010904/DTD/svg10.dtd">
<svg version="1.0" xmlns="http://www.w3.org/2000/svg"
 width="1024.000000pt" height="1024.000000pt" viewBox="0 0 1024.000000 1024.000000"
 preserveAspectRatio="xMidYMid meet">

<g transform="translate(0.000000,1024.000000) scale(0.100000,-0.100000)"
fill="#000000" stroke="none">
<path d="M4209 9276 c-3 -4 -48 -10 -100 -16 -126 -12 -218 -30 -329 -65 -30
-9 -86 -26 -125 -38 -38 -11 -74 -24 -80 -28 -5 -3 -39 -16 -75 -29 -87 -29
-120 -44 -120 -51 0 -4 -19 -12 -42 -18 -24 -7 -49 -15 -55 -17 -8 -4 -13 2
-13 14 0 11 -9 31 -21 46 -19 25 -25 26 -110 26 -70 0 -99 -5 -131 -20 -23
-11 -46 -20 -51 -20 -5 0 -35 -18 -67 -41 -116 -81 -242 -248 -280 -369 -16
-54 -39 -89 -98 -150 -24 -25 -56 -61 -71 -80 -14 -19 -28 -37 -31 -40 -25
-24 -124 -232 -150 -315 -13 -38 -26 -79 -30 -90 -30 -79 -41 -301 -19 -407
13 -66 29 -127 39 -153 30 -76 31 -84 21 -104 -6 -11 -28 -28 -49 -37 -63 -29
-91 -54 -126 -108 -40 -63 -47 -88 -53 -190 -11 -182 78 -366 267 -557 219
-221 529 -362 949 -433 84 -14 189 -29 234 -32 45 -4 83 -8 85 -9 7 -6 -50
-115 -82 -155 -20 -25 -36 -49 -36 -53 0 -13 -92 -146 -151 -218 -30 -36 -79
-101 -109 -144 -30 -43 -60 -83 -66 -89 -29 -31 -213 -256 -234 -286 -14 -19
-30 -42 -37 -50 -98 -124 -303 -422 -333 -485 -8 -16 -22 -42 -32 -56 -16 -25
-38 -65 -121 -221 -18 -35 -39 -79 -47 -98 -7 -19 -26 -64 -43 -100 -16 -36
-33 -75 -38 -87 -5 -13 -14 -35 -20 -50 -7 -16 -15 -37 -19 -48 -4 -11 -12
-31 -18 -45 -6 -14 -13 -36 -17 -50 -7 -26 -19 -71 -36 -130 -65 -225 -93
-417 -93 -640 0 -157 5 -215 34 -385 17 -97 60 -253 90 -320 5 -11 17 -40 27
-65 85 -211 233 -426 441 -642 148 -153 226 -210 437 -316 274 -138 632 -235
1060 -287 341 -41 329 -40 900 -40 778 0 1321 23 1664 71 58 8 120 14 139 14
31 0 33 -2 21 -17 -11 -15 -10 -14 9 1 12 11 22 15 22 10 0 -6 15 -9 33 -9 17
1 48 -2 68 -5 37 -7 37 -7 35 27 -1 32 0 34 26 31 15 -3 25 -1 23 2 -6 9 103
22 116 15 5 -4 9 -2 9 2 0 12 151 44 180 37 20 -4 22 -3 10 5 -13 9 -13 11 3
11 9 0 17 -4 17 -9 0 -10 14 -8 65 8 22 7 25 10 10 11 -16 1 -15 4 8 12 20 7
32 7 42 -2 12 -10 15 -9 15 4 0 9 5 16 11 16 5 0 8 -4 4 -9 -10 -18 13 -21 26
-4 10 12 10 14 2 9 -7 -4 -13 -2 -13 3 0 6 7 11 15 11 8 0 15 -7 15 -15 0 -12
5 -13 18 -7 9 5 23 7 31 4 8 -3 12 1 9 9 -3 8 -15 13 -29 11 -31 -5 -21 5 11
11 14 3 38 10 53 16 34 13 47 14 28 2 -10 -7 -11 -13 -2 -27 6 -11 11 -13 11
-6 0 7 5 10 11 6 8 -5 10 1 7 20 -3 14 -1 26 3 26 5 0 9 -5 9 -11 0 -6 7 -9
15 -5 8 3 15 0 15 -6 0 -6 3 -8 7 -4 5 4 -1 15 -12 23 -19 15 -19 15 8 9 17
-4 26 -3 23 2 -5 8 183 83 202 81 13 -1 -73 -38 -90 -38 -10 -1 -18 -8 -18
-16 0 -10 10 -15 33 -14 30 1 30 2 7 8 l-25 7 25 6 c14 3 33 9 42 12 12 6 18
1 21 -16 4 -21 4 -21 6 4 1 23 5 26 27 22 20 -4 24 -1 22 13 -2 10 4 19 16 21
15 3 18 -1 14 -21 -4 -18 -1 -24 9 -20 11 5 17 30 16 70 -1 7 4 10 9 7 5 -3 7
-12 4 -20 -7 -19 22 -30 37 -15 8 8 16 6 31 -7 11 -9 16 -12 12 -5 -9 16 23
53 46 53 24 0 32 18 16 38 -12 15 -11 16 5 3 10 -8 16 -20 13 -28 -3 -7 -1
-13 4 -13 5 0 12 9 15 20 7 21 25 28 25 9 0 -7 14 -9 43 -5 23 4 54 8 68 9 15
1 25 7 22 13 -4 11 55 25 172 39 107 13 195 36 195 51 0 28 -53 37 -228 38
l-173 1 68 59 c190 167 286 309 340 501 21 75 28 267 14 366 -25 169 -111 375
-215 514 -136 181 -351 359 -581 480 -63 34 -117 64 -120 67 -3 3 33 27 80 53
206 116 364 312 411 510 22 93 22 277 0 369 -9 38 -34 106 -55 150 -85 183
-178 297 -388 477 -237 203 -294 284 -301 426 -8 139 48 225 243 379 195 154
258 220 270 284 5 28 2 41 -15 63 -20 26 -26 27 -110 27 -133 0 -240 -33 -379
-117 -99 -59 -164 -108 -230 -174 -66 -67 -86 -93 -148 -194 -56 -94 -67 -116
-81 -170 -6 -22 -15 -59 -21 -81 -14 -53 -14 -180 0 -241 21 -95 31 -123 73
-213 28 -62 117 -171 246 -305 70 -71 140 -148 157 -170 67 -87 90 -165 78
-256 -14 -99 -103 -156 -360 -229 -49 -14 -475 -8 -615 9 -325 38 -703 48
-865 23 -127 -19 -240 -42 -305 -61 -19 -5 -46 -13 -60 -16 -14 -4 -34 -10
-45 -14 -11 -5 -38 -14 -60 -20 -45 -14 -76 -27 -185 -78 -79 -37 -93 -44
-146 -74 -19 -10 -51 -29 -71 -40 -42 -24 -125 -79 -133 -89 -21 -25 -144
-120 -162 -125 -13 -3 -33 -10 -45 -16 -25 -10 -61 -24 -95 -38 -13 -5 -61
-27 -108 -50 -47 -23 -88 -41 -92 -41 -4 0 -28 -13 -55 -29 -26 -16 -63 -32
-80 -35 -32 -5 -33 -5 -33 32 0 71 29 310 50 411 59 292 191 618 372 921 173
288 342 497 719 885 587 605 764 871 855 1285 36 169 45 458 19 643 -41 289
-181 659 -346 914 -123 189 -301 383 -429 468 -41 28 -100 72 -131 100 -96 86
-243 160 -373 187 -120 25 -145 29 -211 39 -77 12 -577 24 -586 15z m246 -128
c-78 -47 -217 -175 -273 -252 -20 -28 -43 -57 -52 -64 -8 -8 -10 -11 -3 -7 7
3 1 -20 -14 -51 -29 -64 -55 -153 -47 -166 3 -4 18 -8 33 -8 20 0 50 21 117
81 112 102 182 150 298 205 231 109 450 123 675 41 99 -36 253 -135 357 -231
39 -36 74 -62 78 -58 4 3 4 -1 0 -11 -3 -9 -2 -17 2 -17 5 0 15 -14 22 -30 8
-17 18 -28 23 -24 5 3 9 -6 9 -19 0 -31 10 -40 27 -25 11 8 12 7 7 -5 -8 -21
15 -89 27 -82 8 5 13 -7 11 -26 -1 -3 9 -12 22 -19 31 -16 45 -48 36 -81 -5
-18 4 -65 30 -151 21 -68 41 -143 45 -166 4 -24 14 -50 23 -59 12 -12 17 -40
20 -107 2 -50 10 -108 17 -129 7 -21 10 -47 8 -58 -3 -12 0 -24 6 -28 9 -6 12
-55 12 -169 1 -153 -11 -254 -34 -297 -10 -19 -10 -19 -19 0 -6 16 -7 14 -3
-7 8 -40 -6 -34 -37 16 -15 24 -45 55 -67 70 -47 33 -147 75 -178 76 -12 0
-25 5 -28 10 -3 6 -2 10 2 10 5 0 18 7 29 15 14 10 1 9 -45 -6 -35 -11 -66
-18 -68 -16 -2 2 11 21 28 43 44 55 103 183 130 284 19 70 23 112 23 235 1
143 -1 157 -38 300 -21 83 -48 168 -59 190 -89 179 -270 350 -459 433 -143 63
-205 77 -338 76 -223 -2 -388 -79 -570 -263 -150 -153 -225 -287 -282 -510
-49 -191 -46 -381 9 -556 47 -149 176 -308 313 -388 232 -134 595 -154 873
-46 83 32 253 108 325 146 73 38 96 39 201 8 65 -20 118 -73 164 -165 28 -57
32 -74 31 -145 0 -49 -8 -99 -19 -130 -68 -191 -297 -374 -651 -521 -189 -78
-563 -172 -835 -209 -272 -37 -812 -37 -1062 0 -128 19 -379 84 -483 125 -101
40 -212 99 -294 158 -87 62 -232 203 -274 266 -40 60 -91 161 -100 196 -4 14
5 1 18 -28 35 -74 112 -168 167 -203 30 -20 53 -45 64 -69 22 -48 62 -86 150
-143 149 -95 288 -152 520 -212 237 -62 448 -80 825 -72 420 9 728 60 1078
177 178 59 282 105 419 186 135 79 188 120 266 204 92 99 131 181 136 283 3
71 1 81 -20 104 -30 32 -78 53 -121 53 l-33 -1 37 -13 c53 -19 85 -42 85 -60
0 -8 -3 -13 -7 -11 -4 2 -33 -23 -66 -56 -64 -65 -264 -203 -384 -266 -333
-173 -809 -297 -1278 -330 -59 -5 -198 -8 -309 -8 l-202 0 -15 -27 c-37 -61
-151 -94 -243 -69 -55 15 -130 68 -156 111 l-22 35 27 -20 c15 -11 28 -24 28
-28 0 -5 4 -6 9 -3 5 3 12 -1 15 -10 3 -8 10 -13 16 -9 6 4 6 15 0 30 -13 35
-7 31 24 -15 37 -56 79 -80 142 -80 70 0 117 35 169 128 l40 71 40 -4 c22 -2
32 -2 22 1 -12 4 16 18 78 39 211 74 395 207 456 331 29 59 34 63 58 57 52
-13 92 -34 132 -70 l40 -36 -12 29 c-32 74 -79 123 -154 160 -59 28 -102 30
-153 7 l-37 -17 39 -5 c55 -8 63 -27 37 -86 -12 -26 -24 -45 -27 -42 -3 3 -26
-10 -50 -29 -144 -109 -346 -185 -609 -230 -200 -35 -610 -19 -795 30 -30 8
-56 13 -58 11 -6 -6 93 -35 203 -59 126 -28 110 -33 -33 -11 -175 28 -269 65
-371 145 -138 109 -187 297 -122 471 73 193 244 209 281 26 l8 -42 1 55 c1 39
-5 65 -19 88 -11 18 -20 35 -20 38 0 12 170 83 255 107 147 41 213 50 360 50
108 0 163 -5 240 -23 88 -19 133 -35 300 -104 l40 -17 -25 21 c-41 35 -179 98
-265 122 -71 19 -105 22 -311 22 l-231 1 24 50 c12 28 32 96 43 150 11 55 27
129 35 165 72 314 96 427 105 504 6 50 16 112 22 140 14 64 4 158 -23 213 -40
83 -110 117 -192 93 -96 -27 -96 -27 -47 25 57 59 87 75 146 75 39 0 51 -5 78
-32 34 -35 68 -127 82 -223 11 -80 20 -97 51 -93 22 3 30 13 50 66 13 35 32
104 44 154 12 56 26 96 37 104 53 39 255 130 373 168 239 78 458 113 704 115
l160 1 -70 -42z m530 13 c33 -12 49 -18 35 -16 -251 52 -446 5 -675 -161 l-50
-36 45 42 c107 98 246 172 357 190 86 13 219 4 288 -19z m-1820 -107 c30 -12
45 -59 44 -141 l-2 -78 -7 65 c-9 94 -33 129 -100 148 l-35 10 42 1 c23 1 49
-2 58 -5z m2455 -359 c7 -8 9 -15 6 -15 -4 0 -14 7 -22 15 -9 8 -11 15 -6 15
5 0 15 -7 22 -15z m-2910 -1 c0 -8 -19 -13 -24 -6 -3 5 1 9 9 9 8 0 15 -2 15
-3z m2252 -39 c149 -31 265 -95 382 -210 99 -97 165 -199 205 -320 96 -289 49
-570 -124 -753 -152 -161 -362 -256 -630 -284 -95 -10 -125 -9 -215 6 -58 10
-132 27 -165 38 -144 47 -281 163 -341 288 -56 119 -69 180 -69 340 0 127 4
157 28 245 92 334 317 574 602 644 96 24 233 26 327 6z m-2034 -40 c35 -29 52
-87 52 -177 l0 -63 -19 31 c-10 17 -34 42 -53 55 -28 20 -44 24 -108 24 -66
-1 -83 -5 -138 -35 -115 -61 -214 -194 -276 -369 -26 -75 -30 -100 -30 -196
-1 -204 63 -321 230 -421 17 -10 14 -13 -26 -24 -24 -7 -66 -23 -93 -37 -72
-36 -106 -29 -134 27 -40 80 -56 189 -50 335 7 153 26 248 74 365 59 144 107
216 227 336 163 163 272 210 344 149z m2907 -185 c161 -243 302 -590 351 -865
24 -138 24 -433 0 -564 -62 -337 -251 -667 -606 -1056 -82 -89 -413 -427 -414
-422 -1 1 -7 12 -13 24 -7 13 -13 28 -13 34 0 6 92 104 204 218 529 535 703
810 787 1243 24 122 26 356 4 514 -41 306 -184 674 -363 938 -36 54 -45 73
-27 56 15 -14 55 -68 90 -120z m-3109 -100 c70 -24 97 -132 51 -201 -27 -40
-79 -69 -125 -69 -44 0 -101 54 -103 97 -3 70 27 129 84 163 36 23 52 24 93
10z m-207 -589 c63 -123 174 -181 262 -136 l29 16 -30 -50 c-50 -80 -118 -100
-210 -60 -34 15 -61 37 -89 73 -41 52 -76 124 -67 133 3 3 8 -6 11 -20 5 -17
12 -23 24 -20 17 4 17 9 5 76 -16 85 -18 147 -4 147 6 0 10 -4 10 -10 0 -21
20 -9 21 13 1 12 5 -10 9 -49 4 -38 17 -89 29 -113z m4 -1236 c25 -19 35 -23
31 -11 -7 17 11 23 21 6 6 -10 -29 -50 -43 -50 -11 0 -57 50 -71 77 -17 34
-13 51 7 27 9 -11 34 -33 55 -49z m3 23 l19 -21 -30 18 c-41 26 -40 25 -23 25
8 0 23 -10 34 -22z m764 -127 c30 -11 68 -22 84 -26 27 -6 28 -7 11 -25 -20
-22 -74 -27 -106 -9 -21 11 -79 86 -79 102 0 6 8 3 18 -6 9 -9 42 -25 72 -36z
m4762 -247 c-12 -8 -20 -20 -17 -25 11 -17 -12 -9 -29 10 -17 18 -17 19 1 24
10 3 29 5 43 6 l24 1 -22 -16z m-26 -103 c6 -32 4 -38 -37 -73 -24 -21 -47
-38 -50 -38 -4 0 -9 11 -13 23 -3 13 -28 45 -56 71 -27 26 -50 48 -50 50 0 3
100 48 130 59 21 7 68 -50 76 -92z m-256 -4 c0 -5 -97 -77 -104 -77 -13 0 23
43 51 61 24 16 53 25 53 16z m70 -77 c-47 -40 -60 -38 -15 1 30 26 33 34 23
48 -8 11 -6 11 8 -2 19 -18 18 -19 -16 -47z m-3275 -20 c-3 -5 -12 -10 -18
-10 -7 0 -6 4 3 10 19 12 23 12 15 0z m3123 -24 c34 -18 55 -42 72 -84 12 -31
11 -34 -16 -57 -33 -29 -44 -31 -44 -10 0 8 -7 15 -15 15 -8 0 -15 4 -15 9 0
5 -16 19 -36 32 -27 16 -50 22 -88 21 l-51 -2 50 45 c55 49 93 57 143 31z
m-3199 -11 c-67 -36 -369 -90 -369 -66 0 6 12 11 28 10 38 -1 329 55 340 66 3
3 10 5 16 5 6 -1 -1 -7 -15 -15z m-549 -65 c111 -17 114 -19 20 -14 -104 6
-140 13 -140 25 0 5 10 7 23 5 12 -2 56 -10 97 -16z m531 -62 c-221 -316 -370
-514 -396 -527 -186 -90 -496 -101 -722 -26 -132 44 -131 31 -15 188 55 75
142 197 192 271 49 75 94 136 99 136 5 0 25 -7 45 -15 109 -46 470 -60 626
-26 47 11 114 31 150 44 36 14 66 25 68 26 2 0 -20 -32 -47 -71z m233 47 c-4
-8 -10 -15 -15 -15 -16 0 -10 -23 12 -46 l21 -23 -77 -113 c-42 -62 -95 -137
-116 -167 -22 -30 -39 -57 -39 -61 0 -4 19 -7 43 -7 42 1 110 -15 135 -31 10
-7 -20 -58 -118 -203 -130 -192 -132 -194 -163 -189 -18 3 -62 5 -99 5 -38 0
-68 3 -68 6 0 3 34 59 75 125 89 140 57 108 -54 -56 -124 -182 -321 -528 -321
-562 0 -12 15 -14 84 -10 47 2 101 1 120 -2 l36 -7 -16 -37 c-84 -194 -116
-286 -107 -309 3 -8 0 -19 -7 -23 -17 -10 -41 -87 -33 -106 3 -8 0 -14 -7 -14
-16 0 -3 -59 19 -84 9 -11 10 -16 4 -12 -8 4 -13 1 -13 -9 0 -12 6 -15 23 -10
16 5 18 4 8 -3 -11 -8 -10 -11 5 -14 10 -1 -36 -4 -102 -5 -78 -2 -145 -9
-194 -22 -41 -10 -76 -18 -77 -17 -6 5 135 387 186 505 18 40 31 75 28 77 -2
3 -29 -53 -60 -123 -161 -369 -264 -686 -313 -962 -14 -80 -28 -149 -30 -153
-11 -18 13 -6 34 16 20 22 121 76 197 105 52 20 168 38 215 33 34 -4 40 -7 25
-12 -19 -7 -18 -9 8 -19 19 -7 27 -18 27 -35 0 -13 6 -27 13 -29 9 -4 8 -8 -3
-16 -13 -9 -13 -12 -1 -20 11 -7 13 -28 8 -92 -3 -46 -2 -66 1 -44 l7 40 16
-40 c17 -39 16 -40 -5 -47 -11 -3 -15 -6 -8 -7 6 -1 12 -8 12 -16 0 -18 27
-20 33 -2 2 6 3 4 2 -5 -2 -9 8 -27 21 -39 14 -13 23 -28 21 -33 -4 -12 22
-35 38 -36 6 0 3 5 -5 10 -12 7 -10 9 7 7 35 -2 9 -24 -39 -31 -22 -4 -73 -20
-112 -37 -165 -70 -279 -166 -369 -311 -23 -37 -45 -67 -48 -68 -4 0 -19 39
-34 88 -35 112 -36 114 -29 67 3 -22 16 -73 30 -113 l24 -73 -20 -37 c-19 -37
-19 -37 -16 -7 2 17 1 24 -1 18 -2 -7 -14 -13 -25 -13 -16 0 -19 5 -16 24 4
21 2 23 -21 17 -34 -9 -61 -3 -61 14 0 7 -6 15 -14 18 -8 3 -17 24 -21 47 -4
23 -9 39 -12 36 -9 -9 61 -295 82 -336 13 -24 25 -220 15 -220 -14 0 -85 157
-130 290 -129 382 -133 903 -8 1350 153 551 379 1010 779 1580 294 418 314
444 394 497 35 24 132 99 145 113 11 12 72 60 75 60 3 0 2 -7 -1 -15z m119
-62 c-7 -2 -21 -2 -30 0 -10 3 -4 5 12 5 17 0 24 -2 18 -5z m2749 -109 c39
-20 52 -50 49 -114 -1 -30 -3 -56 -5 -57 -1 -1 -27 7 -56 18 -30 11 -79 21
-108 21 -45 1 -61 -5 -99 -31 -25 -18 -47 -30 -49 -28 -11 10 42 139 66 162
55 53 134 64 202 29z m-2450 -190 c-15 -18 -58 -68 -97 -111 -38 -43 -82 -94
-96 -113 l-26 -34 -18 27 c-18 28 -18 28 16 70 18 23 73 88 122 145 l90 103
18 -27 c18 -27 18 -28 -9 -60z m2213 -244 c5 -14 25 -57 45 -95 24 -48 34 -78
30 -95 -5 -21 -10 -15 -42 46 -50 95 -82 222 -74 292 11 91 21 82 27 -23 3
-55 9 -111 14 -125z m269 126 c23 -9 42 -30 64 -70 18 -30 32 -58 32 -61 0 -3
-26 -5 -57 -5 -64 0 -120 -21 -169 -63 -38 -32 -45 -27 -75 55 -32 88 -28 105
34 133 59 28 121 32 171 11z m-2724 -156 c0 -10 -7 -23 -15 -30 -17 -14 -153
-205 -204 -287 -18 -29 -36 -53 -40 -53 -13 0 -31 24 -31 39 1 22 81 148 174
274 76 101 81 106 98 90 10 -9 18 -24 18 -33z m-1607 15 c176 -78 499 -105
697 -59 30 7 56 11 58 10 1 -2 -19 -36 -46 -77 -103 -155 -145 -223 -237 -376
-53 -87 -112 -190 -132 -230 l-37 -71 -61 -14 c-101 -22 -329 -15 -461 15
-116 26 -303 106 -336 143 -16 18 -13 24 45 115 86 133 92 141 180 254 154
196 255 315 268 315 4 0 32 -11 62 -25z m4269 -321 c56 -59 69 -108 17 -58
-61 57 -129 145 -129 167 1 19 5 17 33 -18 17 -22 53 -63 79 -91z m375 104
l28 -12 -25 -3 c-37 -5 -100 -34 -100 -46 0 -5 -7 -15 -16 -21 -14 -10 -13
-15 7 -41 12 -17 -3 -5 -34 25 -32 30 -57 51 -57 47 0 -4 34 -44 75 -88 73
-79 74 -82 53 -93 -20 -10 -28 -5 -80 46 -31 32 -66 58 -77 58 -11 0 -26 3
-35 6 -14 5 -14 9 0 35 37 72 182 120 261 87z m-3318 -172 c10 -11 -6 -50 -77
-188 -50 -95 -98 -194 -107 -220 -10 -27 -21 -48 -25 -48 -4 0 -12 11 -18 25
-15 32 4 81 100 265 101 192 103 195 127 166z m3165 -172 c-2 -16 -1 -21 2
-11 9 28 19 21 62 -44 33 -49 39 -65 31 -80 -5 -11 -11 -19 -13 -19 -2 0 -16
21 -31 46 -15 26 -67 90 -116 144 -49 54 -89 104 -89 112 0 35 20 25 86 -45
60 -62 71 -79 68 -103z m376 105 c27 -12 60 -35 73 -53 27 -36 91 -146 84
-146 -2 0 -18 7 -35 15 -75 38 -241 46 -302 15 -22 -11 -44 -20 -49 -20 -11 0
-91 113 -91 129 0 5 12 18 28 29 75 54 207 68 292 31z m-5325 -315 c167 -79
383 -119 608 -113 64 2 117 4 117 3 0 -1 -18 -41 -41 -90 -61 -132 -130 -310
-188 -485 -58 -174 -52 -168 -165 -194 -159 -38 -414 0 -601 90 -71 34 -167
108 -205 157 l-20 26 45 115 c67 172 122 282 243 484 l54 93 29 -21 c16 -11
71 -40 124 -65z m5074 -49 c0 -33 -4 -67 -9 -75 -7 -11 -10 1 -10 40 0 30 -4
69 -9 87 -7 23 -6 33 2 36 18 6 26 -21 26 -88z m485 -165 c1 -107 -2 -136 -23
-199 -36 -108 -161 -289 -222 -322 -17 -8 -17 -7 -5 21 7 17 28 50 47 72 138
166 184 300 178 518 -4 116 -3 120 10 79 9 -27 14 -92 15 -169z m-3999 121 c3
-10 -13 -67 -36 -127 -41 -110 -101 -329 -114 -416 -4 -27 -10 -48 -14 -48 -4
0 -17 10 -29 23 l-21 22 24 106 c34 153 73 285 106 360 15 36 33 78 39 93 8
23 13 26 25 16 8 -6 17 -20 20 -29z m3807 -54 c25 -14 51 -34 58 -44 8 -10 10
-15 6 -11 -5 4 -29 -27 -54 -70 -24 -42 -53 -89 -63 -104 -11 -15 -19 -31 -19
-36 0 -5 -9 -17 -20 -27 -11 -10 -20 -13 -20 -7 0 6 -24 36 -52 65 -46 46
-117 90 -181 111 -16 5 -16 7 0 34 60 97 112 125 224 119 60 -3 86 -9 121 -30z
m-2002 -267 c-236 -16 -305 -19 -294 -14 23 10 174 21 289 21 l120 0 -115 -7z
m384 -7 l159 -16 28 -46 c27 -42 53 -110 45 -118 -2 -2 -61 3 -132 12 -240 28
-220 22 -250 74 -15 25 -40 61 -57 79 l-31 32 40 0 c21 0 110 -7 198 -17z
m1016 -28 c46 -24 160 -153 160 -181 0 -22 -78 -36 -225 -40 -82 -3 -183 -2
-223 3 l-73 8 -24 58 c-13 32 -35 76 -48 96 l-25 38 136 7 c75 4 164 13 197
20 63 14 83 12 125 -9z m-1679 -42 c35 -27 64 -53 66 -59 2 -6 -14 -11 -39
-12 -59 -2 -257 -30 -347 -48 -81 -17 -102 -14 -157 18 l-36 21 101 38 c103
37 280 84 333 88 9 0 45 -20 79 -46z m1083 31 c53 -4 96 -11 96 -17 0 -5 -14
-7 -32 -4 -18 3 -78 9 -132 13 -55 4 -111 11 -125 15 -18 6 -7 8 35 4 34 -2
105 -7 158 -11z m-1583 -150 c28 -14 49 -27 47 -29 -1 -1 -40 -10 -85 -19 -68
-14 -85 -15 -102 -4 -12 7 -21 16 -21 21 0 6 89 53 108 56 1 1 25 -11 53 -25z
m1037 -60 l53 -6 -46 -40 c-26 -23 -62 -64 -81 -92 l-34 -51 -165 0 -165 0 6
30 c3 17 16 59 28 95 17 51 27 66 46 71 27 7 270 2 358 -7z m-4082 -52 c94
-92 225 -158 401 -203 106 -26 327 -37 417 -20 33 6 60 10 62 8 1 -1 -6 -47
-17 -101 -37 -194 -51 -368 -47 -577 3 -224 13 -199 -87 -238 -210 -80 -556
-29 -806 119 -36 21 -83 58 -104 81 l-38 42 6 186 c6 194 21 308 62 476 19 76
85 285 90 285 1 0 28 -26 61 -58z m2880 51 c13 -5 5 -11 -32 -23 -27 -10 -66
-25 -86 -34 -52 -22 -48 -14 10 21 75 45 81 47 108 36z m792 0 c-39 -75 -68
-199 -68 -287 l0 -54 176 1 176 2 22 60 c38 104 59 137 123 204 l64 64 100 -7
c84 -5 346 -50 357 -61 2 -2 -14 -9 -35 -15 -114 -37 -203 -108 -278 -220 -45
-67 -105 -203 -105 -237 0 -12 -3 -14 -8 -6 -12 19 -52 30 -156 43 -54 7 -93
16 -87 19 6 4 7 12 0 21 -8 13 -11 13 -20 -2 -9 -16 -28 -18 -167 -18 -86 0
-197 -5 -245 -11 -49 -6 -91 -9 -93 -6 -2 2 -14 37 -25 78 -32 117 -99 245
-167 319 l-60 66 101 18 c164 28 404 46 395 29z m-1834 -31 c14 -17 15 -28 5
-98 -6 -43 -14 -141 -17 -217 l-7 -137 -22 15 c-22 15 -23 23 -23 133 0 65 5
156 10 202 16 128 21 137 54 102z m1326 -56 c14 -12 38 -37 55 -55 24 -26 26
-31 10 -26 -11 3 -7 -1 9 -10 22 -13 26 -19 15 -26 -11 -7 -10 -9 4 -9 9 0 17
-4 17 -9 0 -13 -27 -21 -73 -21 -27 0 -37 -3 -29 -9 9 -5 -13 -14 -65 -26 -43
-9 -89 -21 -102 -26 -17 -7 -27 -6 -35 2 -8 9 -8 10 3 4 9 -5 12 -3 9 6 -3 8
-10 15 -16 15 -7 1 -17 2 -23 3 -5 0 -7 6 -4 11 3 6 1 10 -4 10 -6 0 -11 8
-12 18 0 11 -2 12 -6 4 -4 -10 -8 -10 -19 -1 -8 6 -12 15 -9 19 3 5 0 12 -6
16 -8 5 -9 3 -4 -5 6 -10 3 -11 -11 -1 -11 6 -36 22 -58 34 l-38 24 148 35
c82 19 158 37 169 40 38 9 50 6 75 -17z m2570 15 c0 -30 -222 -165 -262 -159
-39 6 -29 23 24 42 59 20 165 77 200 106 25 21 38 25 38 11z m-922 -46 c135
-35 246 -71 236 -78 -5 -3 -25 -7 -44 -10 -19 -2 -27 -2 -17 0 28 7 20 19 -22
32 -43 12 -91 -1 -91 -25 0 -27 12 -43 28 -37 9 4 14 3 10 -2 -4 -4 -20 -9
-35 -10 -59 -4 -64 -5 -58 -15 4 -7 12 -7 25 0 44 23 27 7 -36 -35 -37 -25
-70 -42 -73 -38 -3 5 -15 9 -26 10 -43 3 -116 29 -108 37 4 5 3 6 -3 3 -10 -6
-191 27 -200 36 -5 5 68 62 79 62 4 0 11 5 15 11 10 15 44 32 121 60 83 29 82
29 199 -1z m612 -16 c0 -11 -4 -18 -9 -15 -4 3 -6 -5 -4 -18 7 -33 -10 -39
-51 -19 -56 26 -43 53 25 53 16 0 29 5 29 10 0 6 2 10 5 10 3 0 5 -9 5 -21z
m-113 -13 c0 -8 -8 -11 -21 -8 -19 5 -19 6 0 13 10 4 19 8 20 8 0 1 1 -5 1
-13z m-2534 -41 c70 -33 139 -95 188 -167 41 -60 89 -158 89 -181 0 -7 -44
-25 -103 -41 -56 -16 -106 -31 -112 -33 -5 -1 -26 25 -45 59 -54 96 -143 179
-242 227 -47 23 -95 41 -108 41 -13 0 -20 3 -17 7 13 13 228 95 295 112 2 1
27 -10 55 -24z m2620 -129 c114 -47 236 -102 271 -120 72 -38 182 -112 151
-101 -105 35 -307 27 -440 -18 -138 -47 -186 -76 -277 -167 -48 -48 -89 -84
-90 -80 -7 15 -158 106 -237 142 -47 21 -99 45 -114 53 -16 8 -35 15 -43 15
-23 0 -16 25 26 88 112 168 315 287 475 279 61 -4 97 -15 278 -91z m-2968 8
c39 -15 39 -15 6 -9 -25 4 -52 -3 -105 -27 -39 -18 -72 -36 -74 -40 -2 -5 -18
-7 -35 -7 -21 1 -25 3 -12 6 11 3 25 9 30 15 6 6 3 7 -10 2 -14 -5 -17 -4 -10
4 9 9 151 71 165 72 3 0 23 -7 45 -16z m101 -38 c18 -14 17 -15 -11 -12 -38 5
-37 4 -30 16 8 14 18 13 41 -4z m80 -48 c24 -17 44 -33 44 -35 0 -4 -88 -43
-96 -43 -3 0 -2 6 2 13 4 6 4 9 0 5 -4 -3 -7 -10 -6 -13 2 -9 -51 -45 -65 -45
-5 1 -26 15 -45 32 -19 16 -25 25 -14 19 12 -5 24 -8 27 -4 4 3 18 -2 31 -11
33 -21 36 -21 36 10 0 14 -4 23 -10 19 -5 -3 -10 -1 -10 4 0 6 9 11 20 11 11
0 20 4 20 9 0 5 10 11 22 14 21 6 21 7 3 27 -27 29 -10 25 41 -12z m-355 -34
c125 -37 234 -121 311 -238 33 -51 51 -92 32 -73 -7 7 -42 -11 -168 -88 l-89
-54 -31 49 c-70 110 -164 180 -270 201 -44 9 -59 9 -71 -1 -20 -17 -23 -13
-37 55 -11 55 -10 58 13 76 13 11 55 35 93 54 79 40 130 45 217 19z m146 -3
c0 -10 -6 -17 -12 -14 -16 5 -15 33 1 33 7 0 12 -9 11 -19z m-744 -38 c-7 -2
-19 -2 -25 0 -7 3 -2 5 12 5 14 0 19 -2 13 -5z m155 -39 c13 -9 22 -26 22 -42
0 -54 52 -219 101 -321 48 -102 82 -151 155 -226 19 -20 34 -38 32 -40 -2 -2
-17 3 -34 10 -36 15 -130 123 -151 172 -7 18 -18 33 -23 33 -31 0 -116 237
-135 378 -7 55 -2 61 33 36z m360 -217 c9 -8 8 -13 -5 -23 -23 -17 -57 -18
-49 -1 3 6 9 20 12 29 6 17 15 16 42 -5z m3732 -67 c36 -13 104 -45 153 -72
l87 -49 0 -82 c-1 -45 -5 -102 -9 -126 -8 -38 -6 -44 10 -48 16 -5 19 -15 19
-64 0 -53 2 -59 21 -59 16 0 20 -6 18 -27 -4 -54 1 -94 11 -88 6 3 10 -1 10
-10 0 -10 -5 -13 -12 -9 -7 4 -8 3 -4 -4 4 -6 -6 -29 -22 -51 l-29 -41 -18 48
c-75 196 -280 399 -490 485 -103 42 -177 56 -297 58 -60 1 -106 5 -103 10 11
16 156 101 207 121 84 32 125 37 258 34 100 -2 138 -7 190 -26z m-2031 -99
c46 -4 76 -11 79 -18 3 -10 -33 -13 -157 -13 -154 0 -161 1 -161 20 0 18 6 20
83 19 45 -1 115 -4 156 -8z m-271 -18 c-3 -18 -5 -18 -125 -27 -46 -4 -83 -3
-83 1 1 23 21 32 75 36 138 8 137 8 133 -10z m549 1 c37 -3 67 -11 74 -21 11
-13 -1 -14 -107 -8 -128 8 -134 9 -134 29 0 13 15 13 167 0z m-2289 -1 c-10
-2 -26 -2 -35 0 -10 3 -2 5 17 5 19 0 27 -2 18 -5z m1496 -26 c-3 -8 -52 -22
-120 -35 -63 -13 -121 -25 -129 -28 -16 -7 -19 4 -7 23 4 6 54 20 112 31 130
25 151 26 144 9z m1059 -18 c74 -15 107 -26 107 -36 0 -9 -8 -12 -22 -8 -13 3
-68 14 -123 26 -99 21 -143 39 -94 39 13 0 72 -10 132 -21z m934 -16 c-54 -3
-76 -7 -71 -15 4 -7 3 -8 -5 -4 -26 16 5 26 77 24 l77 -2 -78 -3z m-2289 -23
c-11 -18 -51 -34 -190 -76 -12 -4 -15 0 -11 16 3 12 19 24 42 30 20 5 63 19
96 29 76 25 78 25 63 1z m2441 14 c19 -4 31 -12 31 -23 0 -11 -3 -12 -8 -4 -4
7 -26 17 -47 22 -45 10 -25 14 24 5z m-847 -28 c100 -33 138 -49 138 -58 0
-14 -41 -8 -129 19 -87 26 -111 38 -111 54 0 14 24 11 102 -15z m608 -6 c-4
-3 -10 -18 -14 -33 -6 -26 -5 -27 14 -17 15 8 20 8 20 -3 0 -7 -12 -18 -27
-24 l-28 -12 27 6 c19 3 29 0 37 -15 9 -17 8 -19 -10 -15 -16 5 -18 8 -7 15 9
6 6 8 -12 7 -39 -3 -62 0 -57 9 3 4 -10 8 -28 9 -18 2 -42 6 -54 11 -19 7 -15
11 36 37 31 17 61 29 65 27 5 -1 11 4 14 12 5 12 9 13 19 3 7 -7 9 -14 5 -17z
m365 -18 c-3 -3 -11 0 -18 7 -9 10 -8 11 6 5 10 -3 15 -9 12 -12z m-5642 -131
c103 -50 220 -89 317 -107 149 -27 371 -13 505 30 18 6 23 -5 57 -147 41 -169
83 -285 157 -436 l49 -100 -64 -25 c-224 -90 -614 -43 -879 106 -80 44 -75 39
-149 185 -84 169 -156 394 -174 549 l-8 71 53 -43 c29 -24 90 -61 136 -83z
m4207 104 c125 -15 351 -53 358 -60 2 -1 -30 -11 -70 -20 -406 -92 -822 -133
-1257 -122 -213 5 -439 22 -451 34 -7 7 23 22 33 16 5 -3 12 -1 16 4 9 14 128
56 140 49 5 -3 11 -2 13 2 3 9 153 52 179 52 16 0 -29 -40 -46 -40 -5 0 -3 5
5 11 11 7 4 8 -25 3 -53 -9 -54 -11 -6 -19 44 -7 85 1 76 16 -10 15 26 23 46
11 22 -14 39 -15 39 -3 0 5 -16 12 -36 16 -20 3 -34 8 -32 10 3 4 154 31 225
41 187 26 579 25 793 -1z m-1367 -11 c-3 -9 -39 -32 -80 -50 -83 -38 -83 -38
-83 -24 0 9 139 85 162 89 4 0 5 -6 1 -15z m3507 -54 c128 -250 125 -525 -9
-749 -45 -77 -133 -186 -162 -201 -16 -9 -15 -4 7 46 13 30 42 79 63 107 53
71 97 161 123 254 18 65 22 104 22 233 0 153 0 156 -35 253 -20 53 -34 97 -33
97 2 0 13 -18 24 -40z m-1237 15 c27 -4 79 -18 115 -31 247 -92 432 -273 536
-520 20 -47 36 -91 36 -97 0 -7 -17 -22 -38 -33 -47 -27 -247 -110 -333 -138
l-67 -22 -12 56 c-30 135 -115 322 -194 427 -75 100 -170 179 -271 229 -50 24
-97 44 -105 45 -8 0 41 20 109 44 68 25 126 47 129 50 3 2 14 3 26 0 12 -2 43
-7 69 -10z m1194 -47 c-3 -7 -5 -2 -5 12 0 14 2 19 5 13 2 -7 2 -19 0 -25z
m-4857 10 c0 -28 59 -135 99 -180 22 -25 41 -49 41 -52 0 -4 -10 -17 -21 -29
-36 -37 -95 -132 -119 -192 l-23 -56 -24 23 c-33 31 -108 145 -133 202 -21 45
-21 46 -1 84 31 61 154 212 173 212 4 0 8 -6 8 -12z m1200 -8 c-14 -27 -73
-55 -95 -46 -14 5 -5 13 36 35 67 35 72 36 59 11z m2740 -16 c0 -2 -9 0 -20 6
-11 6 -20 13 -20 16 0 2 9 0 20 -6 11 -6 20 -13 20 -16z m-3140 -26 c49 -24
89 -45 89 -48 0 -3 -27 -21 -60 -40 -79 -45 -178 -136 -235 -215 -55 -78 -123
-222 -160 -340 -16 -49 -29 -91 -30 -93 -5 -10 -309 178 -383 237 l-25 19 20
43 c80 179 266 359 437 424 57 21 183 49 240 54 10 0 58 -18 107 -41z m2528
-33 c28 -9 54 -21 58 -27 5 -7 3 -8 -5 -3 -9 5 -9 1 1 -14 10 -17 14 -18 16
-6 4 19 7 19 35 0 19 -12 22 -22 19 -55 l-4 -40 -59 0 c-33 0 -59 -4 -59 -10
0 -5 -9 -10 -20 -10 -11 0 -20 -4 -20 -10 0 -5 -8 -10 -19 -10 -11 0 -21 -9
-24 -21 -4 -16 -11 -20 -26 -16 -27 7 -27 -1 -1 -11 11 -4 16 -12 12 -19 -5
-8 -25 10 -57 50 -27 34 -50 65 -50 69 0 3 -4 10 -9 15 -5 5 -6 3 -2 -4 14
-24 -9 -13 -41 20 -18 19 -27 34 -20 35 6 1 26 3 42 5 17 1 36 8 43 15 7 6 26
12 42 12 16 0 32 5 35 10 9 14 5 13 -101 -15 -78 -22 -97 -24 -116 -14 -21 11
-13 15 87 40 130 32 174 34 243 14z m-2287 -60 c42 -13 100 -27 128 -31 56 -7
64 -25 15 -35 -16 -4 -23 -7 -16 -8 9 -1 2 -15 -18 -41 -17 -22 -35 -38 -40
-35 -12 7 -31 -20 -25 -36 2 -8 -5 -25 -16 -39 -11 -14 -18 -19 -14 -12 3 6 1
12 -6 12 -7 0 -4 6 7 14 10 8 16 18 11 22 -4 4 -7 2 -7 -4 0 -7 -7 -12 -16
-12 -11 0 -15 -6 -11 -19 4 -16 1 -18 -17 -12 -22 8 -36 51 -17 51 6 0 11 5
11 10 0 6 -33 10 -80 10 -73 0 -80 2 -80 20 0 16 -7 20 -31 20 -17 0 -37 7
-46 16 -14 14 -18 13 -39 -7 -13 -12 -22 -24 -21 -28 1 -3 -2 -7 -8 -9 -5 -2
-21 -13 -35 -25 -14 -12 2 6 34 40 38 40 67 61 79 60 11 -1 21 4 23 11 1 7 0
8 -3 2 -2 -5 -10 -10 -16 -10 -22 0 18 29 88 64 39 20 75 35 80 36 6 0 44 -11
86 -25z m1970 -38 c175 -125 316 -378 364 -654 19 -107 19 -111 -2 -117 -29
-9 -252 -46 -333 -56 -41 -5 -142 -18 -225 -29 -82 -11 -175 -21 -205 -22
l-55 -3 -7 119 c-13 212 -103 557 -177 677 -22 36 -29 53 -21 58 7 4 55 10
108 14 107 8 360 42 407 56 55 15 71 10 146 -43z m499 -1 c0 -2 -9 -2 -20 1
-11 3 -20 9 -20 15 0 5 9 4 20 -2 11 -6 20 -12 20 -14z m-2150 -20 c19 -3 138
-10 264 -16 127 -6 231 -12 233 -13 1 -2 9 -59 17 -127 21 -172 36 -417 36
-584 l0 -139 -182 6 c-228 8 -402 27 -630 69 -209 37 -193 16 -149 201 62 257
152 445 275 575 34 35 45 41 71 38 16 -3 46 -7 65 -10z m2191 -13 c13 -16 12
-17 -3 -4 -17 13 -22 21 -14 21 2 0 10 -8 17 -17z m-1219 -54 c16 -30 26 -60
23 -67 -3 -7 -1 -11 4 -8 11 7 67 -142 57 -151 -3 -3 -6 0 -6 8 0 8 -9 20 -20
27 -18 11 -20 10 -20 -18 l0 -30 -160 0 c-153 0 -160 1 -160 20 0 17 -7 20
-40 20 -33 0 -40 -3 -40 -19 0 -32 -20 -35 -21 -4 l-1 28 -7 -25 c-7 -23 -8
-22 -12 13 -3 21 -1 40 3 43 4 3 8 11 8 17 0 7 -4 6 -11 -3 -8 -11 -9 -5 -4
23 4 25 2 37 -6 37 -8 0 -9 14 -5 48 5 32 4 42 -3 33 -8 -12 -11 -9 -17 12 -3
16 -5 30 -3 31 4 4 387 24 404 21 5 -1 22 -26 37 -56z m-1230 -51 c-7 -7 -12
-8 -12 -2 0 14 12 26 19 19 2 -3 -1 -11 -7 -17z m2587 -52 c0 -6 -3 -6 -6 2
-2 6 -10 9 -16 5 -7 -3 -9 -3 -5 2 4 4 2 15 -4 24 -8 10 -4 9 10 -3 12 -11 22
-24 21 -30z m-3972 12 c-3 -8 -6 -5 -6 6 -1 11 2 17 5 13 3 -3 4 -12 1 -19z
m1326 -53 c-3 -9 -8 -14 -10 -11 -3 3 -2 9 2 15 9 16 15 13 8 -4z m-2304 -367
c16 -18 70 -81 120 -140 124 -146 259 -261 364 -308 82 -38 325 -22 473 29 63
23 76 31 50 31 -24 0 -76 31 -76 46 0 6 -13 14 -30 18 -21 4 -30 11 -30 25 0
19 -34 31 -91 31 -16 0 -29 5 -29 10 0 6 -9 10 -20 10 -11 0 -20 7 -20 15 0 9
-12 18 -30 22 -43 8 -41 40 3 46 17 2 -17 5 -78 6 -60 1 -141 6 -178 11 -82
12 -351 88 -355 101 -2 5 -7 7 -10 5 -4 -2 -16 6 -27 17 -13 12 -15 18 -5 14
91 -34 284 -90 360 -103 131 -23 357 -15 452 15 37 12 70 26 73 31 11 18 21
10 55 -42 39 -60 196 -226 295 -312 39 -33 69 -63 68 -68 -2 -4 3 -5 11 -2 8
3 17 1 20 -4 7 -12 -174 -98 -249 -117 -33 -9 -87 -18 -120 -22 -71 -8 -50
-21 35 -22 110 -1 258 45 336 104 37 29 53 33 33 9 -37 -45 -155 -99 -259
-118 l-65 -12 85 -23 c141 -37 206 -49 295 -50 78 -1 186 19 207 38 9 8 -168
111 -191 111 -9 1 -27 7 -40 14 -20 11 -21 14 -6 20 11 4 38 -6 74 -28 31 -19
93 -52 137 -74 l81 -39 -83 -41 c-55 -27 -98 -42 -122 -42 -116 0 -519 97
-715 171 -394 151 -582 293 -840 637 -21 27 14 11 42 -20z m5938 -165 c-9 -15
-28 -40 -44 -54 -33 -32 -179 -127 -242 -159 l-44 -22 29 40 c16 23 45 48 64
57 53 25 192 120 219 149 30 32 37 27 18 -11z m-342 -202 c-28 -55 -90 -86
-355 -176 l-159 -54 21 32 c18 28 38 38 167 80 111 37 280 109 339 145 1 1 -4
-11 -13 -27z m230 -51 c-3 -5 -12 -10 -18 -10 -7 0 -6 4 3 10 19 12 23 12 15
0z m-65 -35 c0 -2 -10 -9 -22 -15 -22 -11 -22 -10 -4 4 21 17 26 19 26 11z
m-53 -41 c0 -9 -9 -19 -19 -22 -10 -2 -18 -8 -18 -13 0 -5 -5 -9 -11 -9 -5 0
-8 4 -5 9 4 5 -4 7 -16 4 -19 -4 -20 -3 -8 6 8 6 27 11 43 11 15 0 26 3 26 8
-2 10 0 22 4 22 2 0 4 -7 4 -16z m-128 -58 c-2 -2 -15 -7 -29 -10 l-25 -7 25
15 c21 12 42 14 29 2z m71 4 c0 -5 -4 -10 -10 -10 -5 0 -10 5 -10 10 0 6 5 10
10 10 6 0 10 -4 10 -10z m-597 -34 c-13 -17 -41 -30 -95 -45 -118 -33 -348
-80 -348 -72 0 23 50 42 181 71 81 17 173 40 205 50 77 24 78 24 57 -4z
m-3303 -58 c0 -5 -14 -1 -31 8 -24 12 -29 18 -18 25 14 8 49 -15 49 -33z m291
-49 c92 -18 108 -25 118 -45 14 -32 7 -31 -143 7 -121 32 -202 65 -225 92 -9
11 7 9 66 -9 43 -13 126 -33 184 -45z m2543 8 c-9 -23 -42 -36 -150 -57 -161
-31 -585 -79 -699 -80 l-59 0 22 22 c20 20 38 23 209 35 166 11 527 59 623 82
51 13 60 12 54 -2z m-2216 -67 c123 -19 290 -33 575 -48 l137 -7 -16 -24 -17
-24 -191 7 c-275 10 -418 25 -604 62 -30 6 -62 36 -62 57 0 5 11 6 25 3 14 -4
83 -15 153 -26z m-553 -61 c88 -11 183 -19 212 -16 30 3 71 0 100 -9 46 -13
42 -13 -72 -8 -113 5 -334 25 -435 40 -39 6 -41 8 -20 14 14 3 32 5 40 4 8 -2
87 -13 175 -25z m1844 7 c-29 -25 -58 -28 -396 -42 -165 -7 -182 -4 -145 28
13 12 47 16 152 18 74 1 185 6 245 10 61 4 124 7 140 8 l30 1 -26 -23z m-1674
4 c13 -6 15 -9 5 -9 -8 0 -22 4 -30 9 -18 12 -2 12 25 0z m2442 -66 c-3 -3
-12 -4 -19 -1 -8 3 -5 6 6 6 11 1 17 -2 13 -5z"/>
<path d="M3940 9084 c-138 -77 -442 -346 -424 -376 7 -10 9 -9 12 5 2 9 8 14
14 11 7 -4 8 -2 4 4 -4 7 -3 12 2 12 5 0 54 44 108 98 109 107 214 190 314
246 36 20 58 36 50 36 -8 0 -44 -16 -80 -36z"/>
<path d="M4094 8788 c-47 -54 -97 -121 -87 -117 6 2 34 34 62 72 51 66 63 88
25 45z"/>
<path d="M3455 8648 c-21 -29 -43 -58 -47 -64 -5 -7 -11 -23 -13 -35 l-4 -24
19 25 c10 14 17 26 15 28 -2 2 4 12 13 22 34 38 53 65 52 74 -1 5 4 13 12 17
7 5 8 9 3 9 -6 0 -28 -24 -50 -52z"/>
<path d="M3374 8522 c3 -5 1 -12 -6 -14 -8 -3 -9 -6 -1 -11 6 -4 13 0 17 8 3
8 0 17 -6 21 -6 4 -8 3 -4 -4z"/>
<path d="M3340 8470 c-9 -16 -8 -18 5 -14 8 4 15 12 15 20 0 20 -7 17 -20 -6z"/>
<path d="M3325 8430 c3 -5 1 -10 -5 -10 -6 0 -8 -4 -5 -10 3 -5 1 -10 -6 -10
-7 0 -9 -3 -5 -7 4 -5 14 1 22 11 17 23 18 36 3 36 -5 0 -7 -4 -4 -10z"/>
<path d="M3836 8378 c3 -5 10 -6 15 -3 13 9 11 12 -6 12 -8 0 -12 -4 -9 -9z"/>
<path d="M3811 8317 c-12 -24 -24 -50 -25 -58 -3 -14 -14 -44 -24 -64 -3 -7
-1 -7 6 0 12 11 73 157 68 162 -1 2 -13 -16 -25 -40z"/>
<path d="M3260 8295 c-7 -9 -8 -15 -2 -15 5 0 12 7 16 15 3 8 4 15 2 15 -2 0
-9 -7 -16 -15z"/>
<path d="M3222 8213 c-55 -153 -120 -429 -136 -573 -9 -81 9 -40 24 55 23 153
82 387 134 533 8 23 11 42 7 42 -5 0 -18 -26 -29 -57z"/>
<path d="M3712 8047 c-17 -56 -40 -147 -51 -202 -22 -114 -45 -295 -38 -301 3
-3 8 21 12 53 16 135 70 399 101 496 9 27 14 50 12 53 -3 2 -19 -42 -36 -99z"/>
<path d="M3101 7258 c-86 -15 -159 -89 -176 -178 l-6 -35 19 40 c59 125 181
180 286 130 110 -52 137 -237 58 -395 -33 -65 -26 -71 13 -10 65 102 73 255
18 351 -16 29 -42 62 -56 73 -32 24 -98 34 -156 24z"/>
<path d="M2314 7159 c-16 -18 -19 -36 -19 -128 0 -117 12 -148 66 -176 l27
-15 11 48 c17 84 22 214 9 252 -11 28 -19 36 -44 38 -21 2 -36 -4 -50 -19z"/>
<path d="M3094 7080 c-53 -21 -91 -109 -80 -183 8 -52 56 -132 84 -141 57 -18
108 55 119 169 7 77 1 104 -31 138 -25 27 -54 33 -92 17z"/>
<path d="M2227 7004 c-13 -13 -7 -44 8 -44 16 0 17 5 6 33 -3 10 -10 15 -14
11z"/>
<path d="M2233 6930 c1 -11 5 -20 9 -20 4 0 8 9 8 20 0 11 -4 20 -9 20 -6 0
-9 -9 -8 -20z"/>
<path d="M4055 6869 c-4 -6 -5 -12 -2 -15 2 -3 7 2 10 11 7 17 1 20 -8 4z"/>
<path d="M3678 6506 c-15 -6 -42 -26 -58 -43 -19 -19 -38 -30 -48 -27 -9 2 -7
-1 5 -7 19 -10 25 -9 40 9 10 11 38 34 62 51 46 32 45 38 -1 17z"/>
<path d="M3170 6341 c0 -5 5 -13 10 -16 6 -3 10 -2 10 4 0 5 -4 13 -10 16 -5
3 -10 2 -10 -4z"/>
<path d="M4544 8471 c-112 -32 -174 -69 -256 -153 -61 -61 -87 -98 -123 -171
-66 -135 -79 -196 -72 -347 4 -93 11 -139 26 -178 52 -131 160 -255 276 -314
165 -85 378 -86 552 -1 222 107 367 386 334 640 -21 167 -76 278 -189 385 -77
72 -159 119 -248 142 -81 21 -222 20 -300 -3z m166 -216 c50 -49 75 -110 66
-162 -16 -87 -95 -153 -184 -153 -77 0 -130 34 -163 105 -61 131 30 260 179
252 57 -3 65 -6 102 -42z m357 -287 c-3 -8 -6 -5 -6 6 -1 11 2 17 5 13 3 -3 4
-12 1 -19z m10 -65 c-3 -10 -5 -2 -5 17 0 19 2 27 5 18 2 -10 2 -26 0 -35z
m99 -115 c-9 -66 -35 -157 -51 -181 -8 -12 -10 -29 -6 -45 5 -15 6 -34 3 -42
-5 -13 -3 -13 13 0 40 32 -25 -48 -78 -96 -104 -94 -284 -153 -430 -139 -141
13 -251 63 -342 155 -57 58 -59 61 -41 77 10 10 16 13 13 7 -4 -7 1 -18 10
-25 9 -8 15 -9 12 -4 -44 90 -71 183 -77 263 -4 63 -3 72 11 66 8 -3 18 -12
21 -20 8 -22 26 -17 27 9 1 12 7 -7 15 -43 47 -216 192 -341 397 -341 78 0
108 7 178 40 100 48 205 195 216 306 4 39 9 52 17 46 6 -5 28 -14 49 -19 35
-10 37 -9 37 14 0 13 3 24 6 24 4 0 3 -24 0 -52z m-963 -232 c3 4 5 -3 4 -15
-2 -26 -1 -26 -23 7 -13 19 -13 24 -2 15 8 -7 18 -10 21 -7z"/>
<path d="M2500 6495 c13 -14 28 -25 34 -25 6 0 -2 11 -18 25 -37 32 -46 32
-16 0z"/>
<path d="M3573 5729 c-32 -50 -86 -134 -121 -187 -35 -53 -50 -83 -35 -65 26
29 30 31 47 18 11 -8 29 -15 40 -14 16 0 13 4 -12 15 -27 12 -31 17 -23 33 6
10 7 21 4 25 -3 3 6 6 20 6 15 0 27 5 27 11 0 5 4 8 8 5 5 -3 15 6 22 19 7 14
20 25 28 25 8 0 22 8 31 18 13 15 44 21 154 32 100 10 137 17 137 27 0 7 9 13
20 13 11 0 20 5 20 11 0 7 11 8 30 4 18 -4 30 -3 30 4 0 7 22 8 64 4 39 -3 70
-1 82 5 15 9 -12 11 -111 12 -132 0 -286 24 -364 56 -18 8 -35 14 -37 14 -2 0
-29 -41 -61 -91z"/>
<path d="M4313 5773 c9 -2 23 -2 30 0 6 3 -1 5 -18 5 -16 0 -22 -2 -12 -5z"/>
<path d="M4230 5760 c-34 -7 -34 -7 -5 -8 17 0 39 3 50 8 24 10 4 10 -45 0z"/>
<path d="M3916 3215 c-9 -26 -7 -32 5 -12 6 10 9 21 6 23 -2 3 -7 -2 -11 -11z"/>
<path d="M3938 3193 c7 -3 16 -2 19 1 4 3 -2 6 -13 5 -11 0 -14 -3 -6 -6z"/>
<path d="M3940 3011 c0 -6 4 -13 10 -16 6 -3 7 1 4 9 -7 18 -14 21 -14 7z"/>
<path d="M3992 2940 c0 -14 2 -19 5 -12 2 6 2 18 0 25 -3 6 -5 1 -5 -13z"/>
<path d="M3482 2725 c0 -22 4 -53 8 -70 7 -27 8 -28 8 -5 0 14 -3 45 -7 70
l-8 45 -1 -40z"/>
<path d="M6165 3750 c-4 -6 9 -10 32 -10 28 0 34 3 23 10 -20 13 -47 13 -55 0z"/>
<path d="M6073 3743 c9 -2 23 -2 30 0 6 3 -1 5 -18 5 -16 0 -22 -2 -12 -5z"/>
<path d="M6268 3743 c18 -2 45 -2 60 0 15 2 0 4 -33 4 -33 0 -45 -2 -27 -4z"/>
<path d="M5455 3680 c-270 -61 -275 -63 -259 -81 15 -17 59 -15 48 3 -3 5 -11
5 -19 -2 -9 -8 -15 -8 -20 0 -7 11 -3 12 44 14 16 0 27 -2 24 -6 -2 -5 4 -8
14 -8 10 0 36 -3 58 -6 30 -4 36 -3 25 5 -13 10 -13 12 0 21 10 6 11 10 3 10
-7 0 -13 4 -13 9 0 14 36 19 56 8 13 -7 19 -7 22 1 2 7 11 12 20 12 15 -1 15
-2 0 -11 -10 -5 -18 -19 -18 -29 0 -17 7 -20 40 -20 33 0 40 -3 40 -20 0 -13
7 -20 20 -20 30 0 27 60 -4 98 -26 30 -34 32 -81 22z m-115 -44 c0 -2 -7 -7
-16 -10 -8 -3 -12 -2 -9 4 6 10 25 14 25 6z"/>
<path d="M5338 3563 c12 -2 32 -2 45 0 12 2 2 4 -23 4 -25 0 -35 -2 -22 -4z"/>
<path d="M5435 3510 c-3 -5 1 -10 10 -10 9 0 13 5 10 10 -3 6 -8 10 -10 10 -2
0 -7 -4 -10 -10z"/>
<path d="M6995 3650 c-8 -12 16 -50 32 -50 7 0 13 5 13 10 0 6 11 16 25 22 14
6 25 15 25 20 0 11 -87 10 -95 -2z m58 -7 c-7 -2 -19 -2 -25 0 -7 3 -2 5 12 5
14 0 19 -2 13 -5z"/>
<path d="M7135 3635 c22 -8 34 -14 27 -14 -7 -1 -10 -6 -6 -12 4 -8 9 -7 15 2
6 10 11 11 17 3 4 -6 18 -10 32 -8 14 1 32 3 40 4 16 2 -137 40 -155 39 -5 -1
8 -7 30 -14z"/>
<path d="M6888 3607 c-9 -6 -8 -7 5 -3 14 4 16 1 11 -19 -6 -23 -3 -25 25 -25
22 0 31 5 31 16 0 33 -43 52 -72 31z"/>
<path d="M6792 3544 c-18 -21 -19 -25 -5 -19 10 4 26 7 36 7 19 -1 19 0 11 22
-8 22 -15 20 -42 -10z"/>
<path d="M6978 3483 c7 -3 16 -2 19 1 4 3 -2 6 -13 5 -11 0 -14 -3 -6 -6z"/>
<path d="M7100 3470 c0 -5 5 -10 10 -10 6 0 10 5 10 10 0 6 -4 10 -10 10 -5 0
-10 -4 -10 -10z"/>
<path d="M7506 2711 c-4 -5 3 -7 14 -4 23 6 26 13 6 13 -8 0 -17 -4 -20 -9z"/>
<path d="M2350 2193 c0 -4 5 -15 10 -23 8 -13 10 -13 10 2 0 9 -4 20 -10 23
-5 3 -10 3 -10 -2z"/>
<path d="M2447 2140 c18 -18 152 -61 231 -75 47 -8 132 -14 191 -13 l106 1
-120 7 c-153 9 -234 23 -336 59 -44 16 -77 25 -72 21z"/>
<path d="M2402 2088 c13 -23 46 -65 73 -93 42 -44 65 -58 145 -88 109 -41 217
-70 235 -63 7 2 16 1 21 -4 5 -4 41 -10 79 -13 l70 -5 -65 10 c-36 5 -72 13
-81 18 -9 5 -27 6 -40 3 -21 -6 -23 -5 -10 10 11 15 11 17 -1 17 -8 0 -19 -5
-26 -12 -9 -9 -12 -9 -12 0 0 14 -63 47 -110 57 -19 4 -38 13 -42 19 -5 8 -12
8 -26 -1 -17 -10 -21 -8 -31 10 -6 12 -9 14 -7 5 4 -11 0 -18 -9 -18 -8 0 -15
4 -15 9 0 5 -9 11 -20 14 -14 4 -18 10 -13 23 4 11 3 15 -5 10 -14 -8 -52 14
-52 31 0 7 -4 13 -9 13 -5 0 -21 20 -35 45 -34 57 -44 59 -14 3z"/>
<path d="M3218 1823 c6 -2 18 -2 25 0 6 3 1 5 -13 5 -14 0 -19 -2 -12 -5z"/>
<path d="M7043 2540 c-13 -5 -23 -12 -23 -15 0 -9 16 -5 36 10 22 16 19 18
-13 5z"/>
<path d="M4740 2470 c14 -4 34 -8 45 -8 16 0 15 2 -5 8 -14 4 -34 8 -45 8 -16
0 -15 -2 5 -8z"/>
<path d="M4825 2450 c11 -5 27 -9 35 -9 9 0 8 4 -5 9 -11 5 -27 9 -35 9 -9 0
-8 -4 5 -9z"/>
<path d="M4890 2430 c8 -5 24 -9 35 -9 l20 0 -20 9 c-11 5 -27 9 -35 9 -13 1
-13 0 0 -9z"/>
<path d="M5873 2371 c-78 -4 -145 -9 -149 -13 -4 -4 22 -5 57 -3 35 3 119 7
187 9 67 2 125 6 129 10 3 3 -14 5 -38 4 -24 -1 -108 -4 -186 -7z"/>
<path d="M6163 2215 c0 -8 4 -12 9 -9 5 3 6 10 3 15 -9 13 -12 11 -12 -6z"/>
<path d="M3278 1693 c6 -2 18 -2 25 0 6 3 1 5 -13 5 -14 0 -19 -2 -12 -5z"/>
<path d="M3320 1602 c0 -5 7 -9 15 -9 8 0 15 4 15 9 0 4 -7 8 -15 8 -8 0 -15
-4 -15 -8z"/>
<path d="M3490 1504 c0 -11 25 -29 45 -31 18 -2 18 -1 -2 9 -13 6 -23 15 -23
20 0 4 -4 8 -10 8 -5 0 -10 -3 -10 -6z"/>
<path d="M3605 1490 c-3 -6 1 -7 9 -4 18 7 21 14 7 14 -6 0 -13 -4 -16 -10z"/>
<path d="M3570 1470 c-9 -6 -10 -10 -3 -10 6 0 15 5 18 10 8 12 4 12 -15 0z"/>
<path d="M3555 1439 c-96 -46 -206 -71 -340 -77 l-120 -5 45 -20 c244 -106
446 -114 641 -25 l73 34 -71 42 c-40 23 -76 42 -82 42 -6 0 -21 10 -33 22 -21
21 -21 21 -36 2 -13 -16 -14 -17 -9 -1 8 22 4 21 -68 -14z"/>
<path d="M8330 1330 c0 -5 5 -10 10 -10 6 0 10 5 10 10 0 6 -4 10 -10 10 -5 0
-10 -4 -10 -10z"/>
<path d="M9020 1322 c-19 -7 -49 -45 -43 -54 7 -12 63 -9 63 3 0 5 4 8 9 5 12
-8 45 19 38 31 -8 13 -47 21 -67 15z"/>
<path d="M8041 1214 c0 -11 3 -14 6 -6 3 7 2 16 -1 19 -3 4 -6 -2 -5 -13z"/>
<path d="M8094 1211 c20 -22 26 -25 26 -13 0 4 -10 13 -22 21 -23 14 -23 14
-4 -8z"/>
<path d="M7875 1208 c-36 -13 -31 -9 -39 -34 -6 -19 -3 -21 19 -16 14 2 25 8
25 13 0 5 6 6 14 3 8 -3 17 0 22 7 4 8 3 10 -4 5 -7 -4 -20 -2 -29 3 -16 10
-17 10 -1 11 9 0 20 5 23 10 3 6 5 10 3 9 -2 0 -16 -5 -33 -11z"/>
<path d="M7674 1131 c7 -11 46 -35 46 -28 0 3 -12 12 -26 22 -15 9 -23 12 -20
6z"/>
<path d="M7515 1090 c-3 -5 -1 -10 4 -10 6 0 11 5 11 10 0 6 -2 10 -4 10 -3 0
-8 -4 -11 -10z"/>
<path d="M7586 1074 c-5 -14 -4 -15 9 -4 17 14 19 20 6 20 -5 0 -12 -7 -15
-16z"/>
<path d="M7261 1014 c0 -11 3 -14 6 -6 3 7 2 16 -1 19 -3 4 -6 -2 -5 -13z"/>
<path d="M7225 1010 c-3 -5 -1 -10 4 -10 6 0 11 5 11 10 0 6 -2 10 -4 10 -3 0
-8 -4 -11 -10z"/>
<path d="M7416 1002 c-3 -5 1 -9 9 -9 8 0 12 4 9 9 -3 4 -7 8 -9 8 -2 0 -6 -4
-9 -8z"/>
<path d="M5583 865 c0 -8 4 -12 9 -9 5 3 6 10 3 15 -9 13 -12 11 -12 -6z"/>
<path d="M5620 876 c0 -2 8 -10 18 -17 15 -13 16 -12 3 4 -13 16 -21 21 -21
13z"/>
<path d="M5130 860 c-9 -6 -10 -10 -3 -10 6 0 15 5 18 10 8 12 4 12 -15 0z"/>
</g>
</svg>
